<svg xmlns="http://www.w3.org/2000/svg" width="306.389" height="272.152" viewBox="0 0 306.389 272.152"><defs><style>.a{fill:#211715;}</style></defs><path class="a" d="M261.191,122.521q21.046,12.129,42.1,24.25l-.991-1.727c-.195,5.811,0,11.661.014,17.475q.021,10.936.045,21.874c.007,3.773.021,7.547.021,11.321l.991-1.727q-22.264,12.891-44.542,25.756-7.668,4.428-15.338,8.854c-2.229,1.286-.217,4.744,2.018,3.454q25.037-14.447,50.055-28.923c3.14-1.817,6.326-3.572,9.426-5.456a2.491,2.491,0,0,0,1.39-2.408c.023-1.044-.006-2.091-.008-3.134q-.006-2.464-.008-4.929-.019-10.767-.044-21.533c-.013-6.861-.25-13.766-.02-20.624a1.994,1.994,0,0,0-.991-1.727q-21.056-12.114-42.1-24.25c-2.234-1.288-4.251,2.167-2.018,3.454Z"/><path class="a" d="M35.511,99.427Q18.254,109.368.991,119.3A2.01,2.01,0,0,0,0,121.024c0,16.1.079,32.2.071,48.294a2.626,2.626,0,0,0,1.155,2.609c.665.424,1.373.8,2.056,1.19l4.088,2.367q4.6,2.664,9.2,5.326,11.161,6.459,22.325,12.912,27.318,15.795,54.646,31.572,28.236,16.3,56.485,32.577l13.019,7.5,6.192,3.562,2.735,1.573c1.073.617,2.666,1.946,3.957,1.59a17.435,17.435,0,0,0,3.614-2l4.337-2.494q4.177-2.4,8.355-4.809,8.863-5.1,17.722-10.217,4.581-2.643,9.159-5.287c2.229-1.287.217-4.745-2.018-3.454q-21.343,12.326-42.71,24.61h2.018q-17.218-9.9-34.424-19.818-19.1-11.005-38.183-22.023Q84.771,215.613,65.748,204.62q-17.022-9.836-34.041-19.677-13.071-7.56-26.14-15.125l-2.488-1.441L4.07,170.1c.014-13.3-.039-26.591-.06-39.886Q4,125.621,4,121.024l-.991,1.727q17.268-9.923,34.52-19.87c2.23-1.285.218-4.743-2.018-3.454Z"/><path class="a" d="M173.023,220.047c0,13.824.048,27.648.072,41.472q.007,4.194.01,8.389c0,2.574,4,2.578,4,0,0-13.5-.05-27-.072-40.5q-.007-4.683-.01-9.366c0-2.574-4-2.578-4,0Z"/><path class="a" d="M3.383,123.669q12.111,7.017,24.227,14.023,17.039,9.855,34.083,19.7,19.349,11.179,38.7,22.35,19.038,10.986,38.085,21.96,16.108,9.277,32.229,18.535,1.653.948,3.306,1.9c2.237,1.283,4.254-2.172,2.019-3.453q-15.584-8.935-31.147-17.9-18.828-10.842-37.647-21.7-19.458-11.227-38.909-22.465Q50.862,146.518,33.4,136.418q-12.862-7.44-25.722-14.886L5.4,120.215c-2.231-1.293-4.247,2.163-2.019,3.454Z"/><path class="a" d="M175.045,235.17q-13.44-7.707-26.865-15.444-16.377-9.43-32.744-18.877-16.883-9.741-33.759-19.491-15.236-8.8-30.468-17.609-11.168-6.458-22.331-12.92l-1.985-1.15c-2.232-1.293-4.248,2.163-2.019,3.454Q35.383,159.22,45.9,165.3q14.859,8.595,29.723,17.181,16.79,9.7,33.584,19.393,16.565,9.559,33.137,19.108,13.906,8.01,27.823,16l2.863,1.642c2.236,1.283,4.254-2.172,2.018-3.454Z"/><path class="a" d="M164.068,245.05q-13.018-7.466-26-15c-2.232-1.293-4.248,2.162-2.019,3.454q12.987,7.521,26,15c2.237,1.283,4.254-2.172,2.019-3.454Z"/><path class="a" d="M196.034,234.838h.01l-1.009-.274q12.546,7.256,25.113,14.476a8.054,8.054,0,0,0,2.556,1.279c1,.134,1.927-.613,2.756-1.09l4.73-2.727,10.752-6.2q4.72-2.724,9.443-5.442a2.019,2.019,0,0,0,0-3.454q-13.471-7.734-26.915-15.517c-2.234-1.29-4.25,2.166-2.019,3.454q13.452,7.767,26.915,15.517V231.4q-13.215,7.591-26.406,15.225h2.019q-6.6-3.792-13.2-7.595-3.7-2.132-7.4-4.265l-3.672-2.12c-1.027-.594-2.463-1.809-3.677-1.809-2.574,0-2.578,4,0,4Z"/><path class="a" d="M286.763,178.164q-18.457,10.689-36.932,21.348-24.841,14.343-49.7,28.659-12.857,7.4-25.722,14.785c-2.233,1.279-.221,4.736,2.019,3.454q23.76-13.6,47.457-27.312,23.481-13.536,46.948-27.1,8.974-5.187,17.947-10.381c2.226-1.29.215-4.748-2.019-3.454Z"/><path class="a" d="M175.854,221.782q26.07-14.94,52.087-29.973,28.068-16.185,56.119-32.4,10.623-6.139,21.243-12.285c2.227-1.289.215-4.747-2.019-3.454Q281.122,156.5,258.942,169.3q-29.141,16.827-58.3,33.622-13.4,7.713-26.806,15.406c-2.234,1.28-.221,4.737,2.018,3.454Z"/><path class="a" d="M98.64,135.874h-.01l1.009.273q-2.264-1.311-4.53-2.62a2.076,2.076,0,0,0-1.541-.2,2,2,0,0,0-.477,3.656l2.372,1.373,1.154.666a4.323,4.323,0,0,0,2.023.854,2.06,2.06,0,0,0,1.414-.586,2,2,0,0,0-1.414-3.414Z"/><path class="a" d="M147.821,19.581Q168.943,31.8,190.07,44q23.456,13.547,46.921,27.076,12.072,6.957,24.15,13.906l-.991-1.727c-.267,5.9.007,11.877.02,17.783q.021,10.023.03,20.047l.991-1.727q-17.02,9.855-34.051,19.692-20.718,11.97-41.447,23.921-10.389,5.988-20.782,11.967h2.018q-24.508-14.089-48.99-28.23c-2.233-1.289-4.25,2.166-2.018,3.454q22.713,13.111,45.446,26.192c1.487.855,3.817,2.9,5.562,2.038,1.3-.641,2.543-1.462,3.8-2.185q4.065-2.338,8.128-4.68,8.9-5.123,17.788-10.253,18.487-10.664,36.964-21.342,8.238-4.761,16.473-9.524,3.572-2.066,7.142-4.132,1.613-.933,3.224-1.866a15.4,15.4,0,0,0,3.166-1.911c1.09-1.09.587-3.916.586-5.3q0-1.909-.006-3.82-.007-4.657-.018-9.315-.019-9.013-.034-18.028c0-.924-.034-1.854.008-2.777a1.986,1.986,0,0,0-.991-1.727q-22.263-12.806-44.5-25.646Q195.5,42.524,172.364,29.149q-11.264-6.51-22.525-13.022c-2.232-1.291-4.249,2.164-2.018,3.454Z"/><path class="a" d="M106.191,22.807Q77.753,39.231,49.3,55.631,42.384,59.618,35.461,63.6a2.01,2.01,0,0,0-.991,1.727q0,15.086.045,30.172c0,2.025-.039,4.054.005,6.078.041,1.877,1.483,2.4,2.9,3.22l3.4,1.967,16.449,9.515Q68.9,123,80.531,129.721c2.233,1.289,4.249-2.166,2.018-3.454Q63.82,115.452,45.1,104.617l-7.572-4.38.991,1.727q0-14.984-.044-29.967,0-3.336-.006-6.673l-.991,1.727Q64.77,51.367,92.018,35.611l16.191-9.35c2.229-1.287.217-4.745-2.018-3.454Z"/><path class="a" d="M163.636,139.248c0,8.463.06,16.926.062,25.39,0,2.574,4,2.578,4,0,0-8.464-.061-16.927-.062-25.39,0-2.574-4-2.579-4,0Z"/><path class="a" d="M51.961,76.231q16.02,9.287,32.06,18.54c2.233,1.29,4.249-2.166,2.018-3.454q-16.034-9.261-32.06-18.54c-2.231-1.293-4.247,2.162-2.018,3.454Z"/><path class="a" d="M120.541,115.861c14.814,8.547,29.667,17.03,44.47,25.6,2.232,1.292,4.248-2.163,2.018-3.454-14.8-8.57-29.655-17.052-44.47-25.6-2.233-1.289-4.25,2.166-2.018,3.454Z"/><path class="a" d="M166.513,140.98q16.453-9.429,32.874-18.917,17.654-10.179,35.3-20.377,6.756-3.9,13.509-7.813c2.227-1.289.216-4.747-2.019-3.453q-13.987,8.1-27.987,16.176-18.323,10.579-36.656,21.14-8.514,4.9-17.036,9.79c-2.233,1.28-.22,4.738,2.019,3.454Z"/><path class="a" d="M153,57.371q14.531-8.412,29.06-16.82c2.228-1.289.216-4.747-2.018-3.454q-14.532,8.407-29.06,16.82c-2.228,1.289-.216,4.747,2.018,3.454Z"/><path class="a" d="M114.893,146.257a7.173,7.173,0,0,1-2.6,6.744,27.814,27.814,0,0,1-9.546,4.365c-2.775.734-8.287,1.217-8.341-3.036-.048-3.8,3.874-6,6.706-7.677,2.214-1.308.2-4.768-2.019-3.454-3.347,1.979-6.708,4.195-8.125,8a7.644,7.644,0,0,0,3.415,9.613c3.843,2.013,8.374.934,12.235-.467a28.591,28.591,0,0,0,8.716-4.684,10.706,10.706,0,0,0,3.558-9.4,2.055,2.055,0,0,0-2-2,2.014,2.014,0,0,0-2,2Z"/><path class="a" d="M84.765,132.924a16.018,16.018,0,0,0-4.947,2.3,23.828,23.828,0,0,0-4.18,3.047c-2.462,2.346-4.08,6.009-2.991,9.4,1.152,3.586,4.915,5.327,8.474,5.234,3.84-.1,7.774-1.632,11.154-3.361,3.324-1.7,7.049-4.282,7.021-8.44-.018-2.573-4.018-2.579-4,0,.02,2.939-4.316,4.71-6.506,5.691a29.324,29.324,0,0,1-4.9,1.674,8.87,8.87,0,0,1-5.218.092c-2.891-1.085-2.819-4.229-1.173-6.419a13.361,13.361,0,0,1,3.723-3.089,14.629,14.629,0,0,1,4.608-2.272c2.52-.513,1.453-4.37-1.064-3.857Z"/><path class="a" d="M94.628,133.1c-3.311.748-8.671,1.578-10.5-2.276a10.675,10.675,0,0,1-.647-3.247c.1.966.012-.472,0-.762q-.043-.747-.094-1.5-.1-1.476-.228-2.95c-.582-6.494-1.9-13.094-1.382-19.632a10.351,10.351,0,0,1,2.6-6.328,31.037,31.037,0,0,1,5.973-4.754c2.14-1.412.139-4.877-2.018-3.454-4.2,2.771-8.6,5.966-9.993,11.066-1.274,4.664-.546,9.931-.11,14.676.267,2.916.707,5.813.96,8.731.286,3.293-.092,7.49,1.657,10.465,3.093,5.259,9.685,4.985,14.857,3.817,2.51-.566,1.447-4.424-1.064-3.857Z"/><path class="a" d="M96.929,87.781c1.562-.781,3.127-1.535,4.736-2.214l-.478.2.565-.236a2.2,2.2,0,0,0,1.2-.919,2.043,2.043,0,0,0,.2-1.541,2.022,2.022,0,0,0-.92-1.2,1.932,1.932,0,0,0-1.541-.2c-1.963.813-3.877,1.7-5.777,2.652a2,2,0,0,0-.718,2.736,2.049,2.049,0,0,0,2.736.718Z"/><path class="a" d="M145.46,93.544a13.793,13.793,0,0,1-2.585,8,17.692,17.692,0,0,1-6.154,4.787c-4.479,2.266-9.592,2.5-14.081,4.764a10.892,10.892,0,0,0-5.633,6.109c-.935,2.718-.957,5.756-1.041,8.594-.1,3.452-.132,6.906-.156,10.359q-.016,2.427-.036,4.854a8.281,8.281,0,0,1-.034,2.238c-.143.414-.669.38-1.2.516a31.273,31.273,0,0,1-10.269.807c-1.2-.1-2.738-.109-3.2-1.5a11.606,11.606,0,0,1-.233-2.433c-.08-.923-.143-1.847-.2-2.772a2.038,2.038,0,0,0-2-2h-.01l2,2c-.378-6.638-.4-13.3-.607-19.95-.078-2.549-.152-5.1-.079-7.653.014-.466.031-.933.066-1.4.016-.2.029-.408.057-.609-.085.609.113-.442.085-.327a5.839,5.839,0,0,1,2.137-3.527c2.095-1.464.1-4.934-2.018-3.454-5.132,3.587-4.43,10.111-4.287,15.613.185,7.1.243,14.219.646,21.3a2.038,2.038,0,0,0,2,2h.01l-2-2c.214,3.471-.065,7.5,3.179,9.676a8.922,8.922,0,0,0,4.072.989,31.954,31.954,0,0,0,5.017.075,39.189,39.189,0,0,0,5.062-.627c1.72-.329,3.68-.646,4.829-2.095,1.077-1.358.957-3,.973-4.637.018-1.941.029-3.882.043-5.823.027-3.687.064-7.373.2-11.058.1-2.727.125-6.12,2.21-8.172,2.14-2.105,5.5-2.952,8.345-3.615a37.449,37.449,0,0,0,7.12-2.3,21.733,21.733,0,0,0,8.1-6.018,17.945,17.945,0,0,0,3.676-10.729c.107-2.574-3.894-2.569-4,0Z"/><path class="a" d="M105.455,40.848A37.584,37.584,0,0,0,91.338,62.839C90.8,65.35,94.659,66.423,95.2,63.9a33.437,33.437,0,0,1,12.278-19.6,2.064,2.064,0,0,0,.718-2.736,2.014,2.014,0,0,0-2.737-.718Z"/><path class="a" d="M99.92,78.494c.035-.34-.014.087-.032.172q-.051.249-.122.494c-.034.115-.276.722-.161.475-.145.312-.327.594-.5.89-.017.028-.214.31-.049.09a5.493,5.493,0,0,1-.4.461,3.4,3.4,0,0,1-1.179.918c.039-.022-.539.259-.3.156s-.356.117-.315.1c-.126.039-.254.066-.38.1-.507.14.28.024-.247.04a3.705,3.705,0,0,1-2.969-1.308c-.094-.1-.189-.2-.275-.313.18.225-.079-.121-.116-.176a7.825,7.825,0,0,1-.465-.8c-.061-.122-.123-.248-.176-.375.115.275-.044-.136-.067-.2-.128-.365-.236-.737-.327-1.113-.067-.278-.124-.558-.174-.839,0,0-.1-.7-.052-.307.043.342-.013-.154-.015-.182a9.818,9.818,0,0,1-.031-1.465c.01-.175.117-.794.02-.322.053-.256.1-.509.17-.76.046-.16.237-.652.061-.254a7.158,7.158,0,0,1,.41-.756c.062-.1.3-.35.02-.042.073-.081.142-.162.217-.241s.162-.15.238-.229c.36-.371-.2.121.064-.059a7.744,7.744,0,0,1,.7-.415c.334-.18.143-.065.058-.032.193-.075.392-.139.592-.2.143-.039.284-.072.43-.1.286-.057-.487-.015.051.008.29.012.576-.007.866.024.354.039-.422-.131.192.042.139.04.281.067.42.108a2.1,2.1,0,0,1,.741.33A6.855,6.855,0,0,1,99.3,74.938c.091.165.176.333.253.5-.141-.315.047.145.073.224a7.637,7.637,0,0,1,.245.925c.025.127.05.257.066.385-.049-.386,0,.186.007.263a10.289,10.289,0,0,1-.022,1.254,2.018,2.018,0,0,0,2,2,2.038,2.038,0,0,0,2-2,10.135,10.135,0,0,0-4.45-9.105,7.628,7.628,0,0,0-9.942.84c-2.11,2.34-2.247,5.58-1.637,8.523.8,3.86,3.572,7.388,7.75,7.643,4.43.271,7.86-3.8,8.279-7.9a2.014,2.014,0,0,0-2-2A2.045,2.045,0,0,0,99.92,78.494Z"/><path class="a" d="M106.047,57.2V79.5c0,2.573,4,2.578,4,0V57.2c0-2.574-4-2.578-4,0Z"/><path class="a" d="M124.529,90.407q-5.472-2.922-10.9-5.925c-1.746-.963-3.465-2.041-5.26-2.911-1.524-.738-3.995.257-5.574.635-2.011.482-4.006,1.027-6.006,1.551-3.51.919-7.557,1.9-11.47,2.548-1.668.279-1.966,2.933-.477,3.656q10.44,5.067,20.827,10.247,1.39.69,2.778,1.383a18.65,18.65,0,0,0,3.042,1.481c1.052.29,2.262-.487,3.2-.863q1.208-.483,2.42-.953c2.474-.961,4.969-1.863,7.469-2.754,2.408-.857,1.37-4.723-1.064-3.857-4.043,1.44-8.053,2.954-12.03,4.57l1.541.2q-13.05-6.524-26.17-12.91l-.477,3.655c7.36-1.227,14.159-3.656,21.5-4.94l-1.541-.2c1.75.814,3.419,1.895,5.108,2.827q5.513,3.04,11.062,6.013c2.27,1.212,4.293-2.24,2.018-3.454Z"/><path class="a" d="M135.116,98.53c-.135.155-.282.293-.425.439-.209.213.245-.157,0,.01-.071.049-.142.1-.216.144s-.683.354-.3.19a5.023,5.023,0,0,1-.674.224c-.2.055-.41.094-.618.134-.312.06.307-.022-.013,0-.092.006-.184.016-.276.022a9.9,9.9,0,0,1-1.491-.037c.382.035-.183-.031-.3-.053-.212-.041-.421-.088-.63-.143-.232-.061-.463-.13-.691-.208-.083-.029-.165-.063-.249-.091-.226-.076.257.135-.08-.031a7.69,7.69,0,0,1-2.317-1.82,1.831,1.831,0,0,1-.3-.379c-.141-.2-.274-.414-.4-.63a5.07,5.07,0,0,1-.587-1.485,5.675,5.675,0,0,1,.047-2.839c.054-.2.12-.393.186-.587.018-.054.156-.4.061-.17-.088.208.029-.059.041-.083a12.539,12.539,0,0,1,.713-1.21c.042-.063.237-.286.009-.015.057-.068.112-.137.172-.2.141-.151.278-.3.426-.449.17-.165.348-.323.532-.472-.275.222.214-.141.324-.21.2-.13.416-.25.631-.36.109-.055.22-.108.331-.158-.263.118,0,0,.125-.039.24-.081.479-.156.724-.217.125-.031.25-.059.376-.084.067-.013.5-.073.146-.033a10.206,10.206,0,0,1,1.64-.025c.391.018.216.013.114,0,.184.022.368.061.55.1.342.07.678.16,1.013.259a2,2,0,1,0,1.064-3.857,10.851,10.851,0,0,0-8.182.644,10,10,0,0,0-4.667,5.518c-2.058,5.718,2.076,12.084,7.9,13.151,2.819.517,6.121.175,8.113-2.12a2.049,2.049,0,0,0,0-2.828,2.017,2.017,0,0,0-2.828,0Z"/><path class="a" d="M138.84,44.454h.01l-1.009-.273c3.749,1.985,6.815,5.14,9.506,8.37a31.434,31.434,0,0,1,5.993,11.723,71.013,71.013,0,0,1,2.438,13.192,11.933,11.933,0,0,1-.788,6.508,14.855,14.855,0,0,1-3.7,4.46c-3.865,3.339-8.648,5.424-13.07,7.893l2.938,1.2c-1.051-3.85-2.471-7.58-3.71-11.37l-.515,1.946c2.153-1.733,4.233-3.555,6.4-5.271,1.5-1.185,1.763-2.361,1.835-4.19a53.641,53.641,0,0,0-.408-9.555,2.014,2.014,0,0,0-2.461-1.4,2.054,2.054,0,0,0-1.4,2.461c-.076-.534-.03-.234,0,.078.021.261.043.523.062.784.053.749.093,1.5.128,2.248.076,1.641.132,3.288.093,4.931-.007.321-.017.643-.039.963-.012.187-.025.9-.022.364,0,.526-.183.008.075-.042-.278.054-.817.626-1.111.862-2.013,1.621-3.964,3.315-5.977,4.936a1.949,1.949,0,0,0-.515,1.946c1.24,3.789,2.66,7.52,3.71,11.37a2.024,2.024,0,0,0,2.938,1.2c8.1-4.525,19.606-9.187,19.643-20.129a49.619,49.619,0,0,0-.826-7.71,74.74,74.74,0,0,0-1.518-7.484,36.455,36.455,0,0,0-6.525-13.7,49.27,49.27,0,0,0-5.484-5.914,35.6,35.6,0,0,0-3.246-2.616c-.921-.656-2.264-1.769-3.443-1.769-2.574,0-2.578,4,0,4Z"/><path class="a" d="M139.766,39.17a16.077,16.077,0,0,1-1.925,1.557l1.009-.273a4.648,4.648,0,0,0-2.173.991,16.339,16.339,0,0,1-2.514,1.186,18.8,18.8,0,0,1-5.172,1.124A18.129,18.129,0,0,1,118.9,41.6c-6.635-3.727-10-11.276-9.687-18.705A19.673,19.673,0,0,1,119.687,6.009a20.053,20.053,0,0,1,17.766.118,17.243,17.243,0,0,1,8.858,20.815c-.786,2.457,3.074,3.51,3.858,1.064a21.191,21.191,0,0,0-7.8-23.589A24.321,24.321,0,0,0,121,1.166,23.13,23.13,0,0,0,105.719,18.7c-1.685,8.556.862,18.021,7.589,23.814a22.339,22.339,0,0,0,26.541,1.67l-1.009.273c1.354,0,2.831-1.592,3.754-2.456,1.884-1.762-.949-4.586-2.828-2.828Z"/><path class="a" d="M146.122,29.88c.471.033-.219-.087.2.022.178.047.358.084.534.141.1.032.509.228.207.073.165.084.328.17.486.267.072.044.464.329.2.117a4.863,4.863,0,0,1,.412.373,4.7,4.7,0,0,1,.373.413c-.234-.3.072.134.113.2a4.812,4.812,0,0,1,.26.492c-.159-.356.035.139.058.219a4.135,4.135,0,0,1,.122.551c-.057-.4,0,.159,0,.242,0,.2-.008.39-.019.585-.024.447.067-.153-.042.247-.089.326-.264.956-.321,1.091a6.855,6.855,0,0,1-1.064,1.636,5.873,5.873,0,0,1-1.734,1.339,7.976,7.976,0,0,1-2.148.885,11.842,11.842,0,0,1-1.275.283q-.213.033,0,0c-.106.012-.212.023-.318.031-.245.021-.49.032-.735.038a2,2,0,0,0,0,4c4.771-.117,9.592-2.7,11.212-7.38a7.455,7.455,0,0,0-.689-6.514,7.564,7.564,0,0,0-5.826-3.355,2.01,2.01,0,0,0-2,2,2.048,2.048,0,0,0,2,2Z"/><path class="a" d="M119.82,30.324a3.177,3.177,0,0,1-1.29,2.38,2.488,2.488,0,0,1-1.81.34,2.744,2.744,0,0,1-1.99-1.5,3.236,3.236,0,0,1,.79-3.72,2.571,2.571,0,0,1,3.48.2A2.825,2.825,0,0,1,119.82,30.324Z"/><path class="a" d="M131.98,32.8a3.177,3.177,0,0,1-1.29,2.38,2.437,2.437,0,0,1-1.81.34,2.742,2.742,0,0,1-2-1.5,3.237,3.237,0,0,1,.8-3.71,2.56,2.56,0,0,1,3.48.19A2.87,2.87,0,0,1,131.98,32.8Z"/><path class="a" d="M131.737,19.366a17.386,17.386,0,0,0,2.686,4.728,10.635,10.635,0,0,0,3.6,2.687,2.153,2.153,0,0,0,1.541.2,2,2,0,0,0,.478-3.655,10.493,10.493,0,0,1-1.915-1.148l.405.313a8.791,8.791,0,0,1-1.544-1.558l.313.4a14.967,14.967,0,0,1-1.787-3.229l.2.478c-.04-.1-.08-.19-.119-.285a2.2,2.2,0,0,0-.919-1.2,2,2,0,0,0-2.737.717,1.929,1.929,0,0,0-.2,1.541Z"/><path class="a" d="M132.656,17.108c-2.284,1.2-6.188,2.135-8.609,1.53l1.2,2.938c.77-1.376,1.61-3.29.323-4.65-1.486-1.573-3.6-.465-5.3,0a37.782,37.782,0,0,1-12.112,1.136c-2.572-.142-2.564,3.858,0,4a43.458,43.458,0,0,0,8.119-.279c1.268-.168,2.527-.384,3.773-.675q.968-.227,1.923-.505.534-.156,1.064-.329c.142-.046.284-.093.425-.141q.42-.146.01,0l-.882-.514.149.135-.515-.883c-.2-.478.174-.436-.053-.035-.133.236-.249.484-.381.721a2.022,2.022,0,0,0,1.195,2.938,14.54,14.54,0,0,0,5.9-.1,19.353,19.353,0,0,0,5.794-1.833c2.278-1.2.258-4.655-2.019-3.454Z"/></svg>